<svg xmlns="http://www.w3.org/2000/svg" xmlns:xlink="http://www.w3.org/1999/xlink" width="171.78" height="171.78" viewBox="0 0 171.78 171.78">
  <defs>
    <filter id="Ellipse_71" x="0" y="0" width="171.78" height="171.78" filterUnits="userSpaceOnUse">
      <feOffset dy="3" input="SourceAlpha"/>
      <feGaussianBlur stdDeviation="3" result="blur"/>
      <feFlood flood-opacity="0.161"/>
      <feComposite operator="in" in2="blur"/>
      <feComposite in="SourceGraphic"/>
    </filter>
  </defs>
  <g id="Group_8322" data-name="Group 8322" transform="translate(-131 -202)">
    <g id="Group_8321" data-name="Group 8321">
      <g id="Group_8311" data-name="Group 8311" transform="translate(3 68)">
        <g transform="matrix(1, 0, 0, 1, 128, 134)" filter="url(#Ellipse_71)">
          <circle id="Ellipse_71-2" data-name="Ellipse 71" cx="76.89" cy="76.89" r="76.89" transform="translate(9 6)" fill="#fff"/>
        </g>
        <g id="Group_1633" data-name="Group 1633" transform="translate(166 164)">
          <path id="Path_127" data-name="Path 127" d="M246.125,448.821l9.194.267.014.129a10.835,10.835,0,0,1-1.326.188c-4.2.09-8.41.2-12.614.233-7.937.069-15.874.1-23.811.14-6.1.03-12.2.077-18.3.062-8.149-.021-16.3-.088-24.449-.149-3.115-.022-6.23-.056-9.346-.128-2.054-.048-4.107-.175-6.16-.266l.007-.2,8.368-.244v-1.081q0-17.7-.017-35.4a1.874,1.874,0,0,1,.843-1.717q12.8-9.525,25.56-19.1c4.258-3.184,8.525-6.359,12.82-9.563l12.1,9.036v-4.2H227.4c.014.188.043.387.043.588.006,3.063.019,6.126,0,9.19a1.307,1.307,0,0,0,.575,1.193q8.742,6.491,17.467,13a1.423,1.423,0,0,1,.66,1.3q-.032,17.82-.016,35.639Zm-71.679-3.582.028.12h64.782c-.359-.2-.582-.336-.813-.455q-7.064-3.611-14.13-7.221c-5.466-2.8-10.939-5.587-16.385-8.427a2.155,2.155,0,0,0-2.26-.006c-7.814,4.037-15.654,8.025-23.485,12.029Q178.313,443.256,174.446,445.239ZM210.032,426.6l29.789,15.182V411.839Zm-36.254,15.16L203.523,426.6l-29.745-14.723Zm39.815-37.491h-5.574v5.428h5.574Zm.038,12.63c0-1.735.013-3.429-.025-5.123,0-.129-.352-.35-.547-.357-.955-.036-1.913-.014-2.871-.014h-2.177V416.9Zm-12.845-7.3c.076.042.144.111.212.111,1.671.016,3.343.037,5.015.012.146,0,.409-.321.412-.5.031-1.485.034-2.973-.013-4.459a.784.784,0,0,0-.543-.533c-.872-.06-1.75-.027-2.626-.028h-2.457Zm-.023,1.8v5.532c1.8,0,3.5.014,5.193-.021a.672.672,0,0,0,.463-.464q.054-2.276,0-4.553a.664.664,0,0,0-.442-.473C204.281,411.393,202.582,411.406,200.763,411.406Z" transform="translate(-159.331 -364.418)"/>
          <path id="Path_128" data-name="Path 128" d="M180.172,456.865c-1.191-.361-1.191-.361-1.485-1.028h1.925c.237-.5.449-1.013.711-1.494a2.766,2.766,0,0,1,.685-.955,3.605,3.605,0,0,1,1.121-.346,3.737,3.737,0,0,1,.213,1.142,14.92,14.92,0,0,1-.463,1.871c.812.236,1.333.115,1.667-.615.132-.289.46-.489.7-.729.142.339.306.671.418,1.02a3.778,3.778,0,0,1,.055.764h3.319l.052.266a2.322,2.322,0,0,1-.775.313c-.814,0-1.629-.087-2.443-.1-.194,0-.5.1-.57.243a12.91,12.91,0,0,0-1.381,4.919c-.032.8.443,1.068,1.2.782,1.555-.59,2.038-1.914,2.5-3.355a4.17,4.17,0,0,1,1.438-1.854c.247-.189,1.042.112,1.427.4a2.214,2.214,0,0,1,.531,1.205.961.961,0,0,1-.243.656c-.253.337-.562.632-.848.944l-.819-.77a1.4,1.4,0,0,0-.122,1.869c.458.632,1.05.743,1.894.247,1.107-.649,2.092-1.406,2.182-2.868a3.617,3.617,0,0,1,.393-1.281c.176-.369.161-1.057.924-.746a1.228,1.228,0,0,1,.758,1.587c-.308.749-.633,1.491-.95,2.236l.184.13a1.945,1.945,0,0,0,.337-.366c.4-.746.74-1.523,1.18-2.242a1.22,1.22,0,0,1,.8-.453c.111-.016.369.4.417.643.109.544.128,1.106.185,1.672-.979.181-1.27-.377-1.035-2.116-.175.375-.355.748-.524,1.125s-.33.777-.5,1.162c-.315.7-.6,1.422-.977,2.084a1.01,1.01,0,0,1-.784.459c-.227-.024-.483-.385-.6-.654a4.808,4.808,0,0,1-.216-1.067c-2.218,2.216-4.6,2.025-5.345.016a14.249,14.249,0,0,1-2.019,1.976c-.992.657-1.822.147-2.363-.817-.677.362-1.126,1.183-2.058.741-1.042-.493-.846-1.543-1.17-2.361a4.162,4.162,0,0,1-2.468,1.907,2.476,2.476,0,0,1-3.174-1.746c-.221-.852,1.006-3.412,1.884-3.616a1.644,1.644,0,0,1,1.943,1.683,1.167,1.167,0,0,1-.273.732c-.213.3-.481.753-.752.773s-.56-.427-.851-.677a1.224,1.224,0,0,0-.151,1.785,1.125,1.125,0,0,0,1.718.382,17.061,17.061,0,0,0,2.078-1.693.457.457,0,0,0,.116-.276C179.9,459.23,180.032,458.081,180.172,456.865Zm3.616-.39c-.605.246-1.193.3-1.428.619a5.49,5.49,0,0,0-1.027,2.1,9.794,9.794,0,0,0-.1,3.012c.093.779.711.887,1.224.292a1.665,1.665,0,0,0,.335-.828c.081-.572.028-1.167.143-1.73C183.154,458.875,183.451,457.824,183.788,456.475Zm-1.543-.788.332.059.649-2.16-.374-.11Zm-4.856,3.1-.162-.14a1.794,1.794,0,0,0-.5.313,3.574,3.574,0,0,0-.451.791.931.931,0,0,0,.34.236,3.513,3.513,0,0,0,.584-.649A2.186,2.186,0,0,0,177.389,458.789Zm13.128.045-.279-.22a6.955,6.955,0,0,0-.749.8c-.078.111.03.352.053.534.187-.046.464-.032.543-.15A5.744,5.744,0,0,0,190.516,458.834Z" transform="translate(-158.343 -359.642)" fill="#372229"/>
          <path id="Path_129" data-name="Path 129" d="M210.978,460.054a1.525,1.525,0,0,0,.057,2.006,1.413,1.413,0,0,0,1.952.041,3.54,3.54,0,0,0,1.856-2.439,16.472,16.472,0,0,1,.617-2.09l-.661-.375c.022-.085.033-.171.047-.172.981-.04,1.384-.708,1.663-1.514a.487.487,0,0,1,.062-.147c.328-.423.6-1.155,1.228-.821.292.156.274.916.375,1.405a2.612,2.612,0,0,1,.006.524l1.651-.078.037.278c-.509.11-1.021.2-1.524.338-.207.056-.5.155-.566.311-.491,1.167-.991,2.335-1.37,3.54a6.679,6.679,0,0,0-.156,1.889c-.009.653.484.956.975.539a6.38,6.38,0,0,0,1.586-1.81c.653-1.264,1.118-2.626,1.663-3.947.254-.617.576-1.067,1.367-.74s.737.841.477,1.484q-.546,1.351-1.036,2.726a3.441,3.441,0,0,0-.092.763l.237.138,2.028-3.057.273.128v2.8l.279.064a12.3,12.3,0,0,0,1.627-4.855,1.344,1.344,0,0,1,.642,1.445,23.7,23.7,0,0,1-1.211,3.5c-.442,1-1.9,1.056-2.493-.447-.6.983-1.291,1.932-2.54,1.536-.429-.136-.651-.926-.888-1.294-.475.6-1.107,1.4-1.738,2.2a1.606,1.606,0,0,1-1.939.542,1.937,1.937,0,0,1-1.127-1.78c-.012-.265,0-.53,0-.806a17.052,17.052,0,0,1-2.152,1.046,2.377,2.377,0,0,1-3.088-1.752c-.2-.879,1.064-3.45,1.931-3.62a2.043,2.043,0,0,1,1.457.521c.288.242.349.793.435,1.222a.9.9,0,0,1-.211.588c-.233.327-.475.807-.783.868C211.679,460.8,211.327,460.329,210.978,460.054Zm1.479-1.314-.28-.221a6.723,6.723,0,0,0-.747.8c-.078.111.03.352.053.534.187-.047.463-.033.543-.152A5.667,5.667,0,0,0,212.457,458.741Zm4.821-1.369-.268-.152c-.575.561-.476,1.383-.567,2.136Zm.457-2.471-.265-.047c-.142.438-.3.87-.413,1.315-.025.1.119.24.185.362.1-.089.266-.163.288-.268C217.621,455.813,217.67,455.355,217.734,454.9Z" transform="translate(-155.988 -359.547)" fill="#372229"/>
          <path id="Path_130" data-name="Path 130" d="M206.783,456.118c-1.075,1.493-2.2,2.953-3.2,4.492a26.67,26.67,0,0,0-1.553,3,1.85,1.85,0,0,1-2.061.976,8.883,8.883,0,0,1,.429-3.71c.508-1.559.985-3.128,1.5-4.685.194-.6.867-.831,1.633-.571a.957.957,0,0,1,.678,1.251,8.906,8.906,0,0,0-.326,2.013c.225-.248.459-.488.673-.744.828-.994,1.593-2.05,2.5-2.963a3.21,3.21,0,0,1,1.633-.691c.752-.141,1.14.317.9,1.036-.33,1-.825,1.946-1.126,2.951-.35,1.171-.568,2.381-.843,3.574l.257.129.759-.589a2.255,2.255,0,0,1-2.234,1.95,1.317,1.317,0,0,1-.689-1.523c.388-1.71.809-3.412,1.206-5.12a4.627,4.627,0,0,0,.054-.7Z" transform="translate(-156.603 -359.546)" fill="#372229"/>
          <path id="Path_131" data-name="Path 131" d="M166.081,462.687a1.683,1.683,0,0,0,1.167-2.215.849.849,0,0,1,.655-1.236.9.9,0,0,0,.449-.379,4.958,4.958,0,0,0,.317-.73c.48-1.1.434-1.188-.715-1.351-.272-1.145.063-1.712,1.2-1.844,1.312-.15,2.634-.221,3.953-.314,1.49-.106,1.687,1.232,1.256,2.2a3.564,3.564,0,0,1-2.034,1.67,6.557,6.557,0,0,0-.669.4,5.961,5.961,0,0,1,1.605.907c.863.969.281,2.508-1,3.3a12.653,12.653,0,0,1-4.416,1.278,5.132,5.132,0,0,0-1.061.524c-.155.073-.359.175-.488.126s-.211-.276-.218-.43C166.066,463.975,166.081,463.362,166.081,462.687Zm1.74.048c1.488-.273,2.886-.5,4.265-.809.271-.061.665-.444.663-.676a.825.825,0,0,0-.894-.9c-.612.016-1.227-.03-1.837.011C168.468,460.466,168.013,460.923,167.821,462.736Zm6.174-5.843a4.374,4.374,0,0,0-3.557-.293,2.648,2.648,0,0,0-1.1,2.357C170.916,458.356,172.589,458.033,173.995,456.893Z" transform="translate(-158.878 -359.536)" fill="#372229"/>
          <path id="Path_132" data-name="Path 132" d="M240.93,455.206c-.461.165-.929.183-1.092.415a15.381,15.381,0,0,0-2.679,5.866c-.009.047.025.1.074.286.462-.659.874-1.248,1.288-1.835.092-.13.165-.312.293-.371.385-.179.871-.522,1.173-.41.482.179.548.71.413,1.283-.187.792-.312,1.552-1.138,1.984-.093.049.01.58.107.858a.57.57,0,0,0,.973.237c.747-.619,1.429-1.318,2.114-2.006a7.509,7.509,0,0,0,.647-.926,4.247,4.247,0,0,1-1.82,2.9c-.189.146-.4.265-.594.4-.958.682-1.5.582-2.154-.405-.2-.3-.395-.609-.617-.95-.1.107-.206.168-.231.251a1,1,0,0,1-1.243.823c-.665-.16-.68-.8-.716-1.362a11.586,11.586,0,0,1,1.574-6.163,15.638,15.638,0,0,1,1.375-2.139c.506-.671.8-.653,1.409-.071C240.891,454.646,240.913,454.683,240.93,455.206Zm-2.754,6.209a1.781,1.781,0,0,0,1.358-2.188Z" transform="translate(-154.198 -359.615)" fill="#372229"/>
          <path id="Path_133" data-name="Path 133" d="M234.4,458.393q-.9,1.977-1.8,3.952c-.209.46-.512.955-1.051.671-.3-.156-.44-.694-.548-1.088a4.06,4.06,0,0,1-.018-1.034c-.129-.016-.2-.029-.273-.032a2.507,2.507,0,0,0-2.785,1.751,1.258,1.258,0,0,1-1.552.666c-.766-.228-.8-.916-.816-1.556a1.7,1.7,0,0,1,.164-.763,3.11,3.11,0,0,0,.5-2.6c-.225-.624.468-1.08.91-1.055a2.087,2.087,0,0,1,1.371.832,2.8,2.8,0,0,1,.367,1.576c-.009.689.238.85.881.827,1.236-.045,1.224-.014,1.511-1.2.156-.641.354-1.271.554-1.9.169-.532.525-.525.935-.275a1.222,1.222,0,0,1,.522,1.744c-.305.7-.6,1.4-.893,2.1l.171.11a7.683,7.683,0,0,0,.57-.786c.319-.574.593-1.175.913-1.749.055-.1.244-.124.371-.182Zm-5.843.924a7.006,7.006,0,0,0-.526-1.335c-.163-.252-.467-.745-.865-.325a1.584,1.584,0,0,0-.384,1.043,1.7,1.7,0,0,0,.463.97,3.412,3.412,0,0,0,.868.527Zm-.392,1.657c-.972.17-1.245.645-1.036,1.7Z" transform="translate(-154.881 -359.376)" fill="#372229"/>
          <path id="Path_134" data-name="Path 134" d="M219.113,365.524a11.219,11.219,0,0,1,7.733,3.323c.135.138.108.435.156.66-.226-.057-.523-.041-.667-.18a10,10,0,0,0-8.06-2.924,9.771,9.771,0,0,0-6,2.649,2.143,2.143,0,0,1-.408.377,2.007,2.007,0,0,1-.558.1c.026-.207-.028-.492.089-.612a10.475,10.475,0,0,1,6.249-3.217C218.171,365.629,218.7,365.574,219.113,365.524Z" transform="translate(-155.837 -365.524)"/>
          <path id="Path_135" data-name="Path 135" d="M218.91,369.036a8.175,8.175,0,0,1,5.352,2.219c.164.152.173.473.253.716-.226-.055-.517-.039-.669-.177a7.212,7.212,0,0,0-4.444-1.914,6.776,6.776,0,0,0-4.791,1.581,2.733,2.733,0,0,1-.487.405,2.351,2.351,0,0,1-.622.107c.044-.21.017-.484.143-.618a7.169,7.169,0,0,1,3.255-1.914C217.552,369.246,218.238,369.167,218.91,369.036Z" transform="translate(-155.69 -365.288)"/>
          <path id="Path_136" data-name="Path 136" d="M218.867,372.7a3.786,3.786,0,0,1,2.727,1.091c.144.128.164.394.241.6-.232-.013-.517.057-.687-.052-1.951-1.243-2.872-1.239-4.707.042-.136.094-.362.056-.545.08.03-.206-.018-.5.1-.605A3.893,3.893,0,0,1,218.867,372.7Z" transform="translate(-155.529 -365.042)"/>
          <path id="Path_137" data-name="Path 137" d="M233.845,458.346l.3-.466c.188.124.5.217.54.378a16.6,16.6,0,0,1,.27,1.735l.429-.1c-.031.085-.044.2-.078.207-.314.064-.678.225-.931.123a1.036,1.036,0,0,1-.417-.753,6.851,6.851,0,0,1,.062-1.251c0-.014-.053-.044-.055-.042a1.456,1.456,0,0,0-.123.155Z" transform="translate(-154.323 -359.317)" fill="#372229"/>
          <path id="Path_138" data-name="Path 138" d="M219.744,377.22c-.5.328-.819.7-1.079.665-.281-.041-.746-.524-.7-.713a1.183,1.183,0,0,1,.775-.756C218.963,376.376,219.275,376.824,219.744,377.22Z" transform="translate(-155.391 -364.792)"/>
          <path id="Path_139" data-name="Path 139" d="M173.494,442.283q3.868-1.98,7.736-3.961c7.831-4,15.671-7.991,23.485-12.029a2.155,2.155,0,0,1,2.26.006c5.446,2.84,10.919,5.628,16.385,8.427q7.063,3.616,14.13,7.221c.232.118.455.254.813.454H173.522Z" transform="translate(-158.379 -361.461)" fill="#fe8fb0"/>
          <path id="Path_140" data-name="Path 140" d="M206.839,424.717l29.789-14.758V439.9Z" transform="translate(-156.138 -362.538)" fill="#fe8fb0"/>
          <path id="Path_141" data-name="Path 141" d="M172.868,439.875V409.993l29.745,14.723Z" transform="translate(-158.421 -362.535)" fill="#fe8fb0"/>
          <path id="Path_142" data-name="Path 142" d="M210.527,402.863v5.428h-5.574v-5.428Z" transform="translate(-156.265 -363.014)" fill="#fe8fb0"/>
          <path id="Path_143" data-name="Path 143" d="M210.566,415.044h-5.62V409.55h2.177c.957,0,1.916-.022,2.871.014.2.007.544.228.547.357C210.579,411.615,210.566,413.309,210.566,415.044Z" transform="translate(-156.265 -362.566)" fill="#fe8fb0"/>
          <path id="Path_144" data-name="Path 144" d="M198.176,408.2v-5.394h2.457c.876,0,1.754-.032,2.626.028a.784.784,0,0,1,.543.533c.047,1.486.044,2.973.013,4.459,0,.176-.266.494-.412.5-1.671.026-3.343,0-5.015-.012C198.32,408.313,198.252,408.244,198.176,408.2Z" transform="translate(-156.72 -363.019)" fill="#fe8fb0"/>
          <path id="Path_145" data-name="Path 145" d="M198.154,409.553c1.819,0,3.517-.013,5.215.021a.664.664,0,0,1,.442.473q.053,2.275,0,4.553a.672.672,0,0,1-.463.464c-1.7.035-3.395.021-5.193.021v-5.532Z" transform="translate(-156.722 -362.565)" fill="#fe8fb0"/>
          <path id="Path_147" data-name="Path 147" d="M181.727,455.66l.607-2.211.373.11-.649,2.16Z" transform="translate(-157.826 -359.615)" fill="#372229"/>
          <path id="Path_150" data-name="Path 150" d="M212.31,458.485a5.692,5.692,0,0,1-.43.958c-.08.119-.357.1-.543.151-.024-.181-.131-.423-.053-.534a6.738,6.738,0,0,1,.747-.8Z" transform="translate(-155.841 -359.291)" fill="#372229"/>
          <path id="Path_151" data-name="Path 151" d="M216.813,457.2l-.835,1.984c.091-.753-.009-1.574.567-2.135Z" transform="translate(-155.524 -359.373)" fill="#372229"/>
          <path id="Path_152" data-name="Path 152" d="M217.232,454.876c-.064.455-.113.913-.2,1.362-.022.1-.189.179-.288.268-.066-.122-.209-.263-.185-.362.112-.445.271-.877.413-1.315Z" transform="translate(-155.485 -359.522)" fill="#372229"/>
          <path id="Path_155" data-name="Path 155" d="M238.02,461.051l1.358-2.188A1.781,1.781,0,0,1,238.02,461.051Z" transform="translate(-154.043 -359.251)" fill="#372229"/>
          <path id="Path_156" data-name="Path 156" d="M228.477,459.287l-.444.88a3.415,3.415,0,0,1-.868-.527,1.7,1.7,0,0,1-.463-.97,1.584,1.584,0,0,1,.384-1.043c.4-.42.7.073.864.325A7.005,7.005,0,0,1,228.477,459.287Z" transform="translate(-154.803 -359.345)" fill="#372229"/>
        </g>
      </g>
    </g>
  </g>
</svg>
